<svg width="486" height="37" viewBox="0 0 486 37" fill="none" xmlns="http://www.w3.org/2000/svg">
<g clip-path="url(#clip0_148_2512)">
<path d="M0.937988 18.3389V17.5752C0.937988 15.7048 1.40837 14.2549 2.34912 13.2256C3.29541 12.1908 4.47965 11.6733 5.90186 11.6733C7.32406 11.6733 8.43636 12.0635 9.23877 12.8438C10.0467 13.624 10.4507 14.5731 10.4507 15.6909V15.7822H8.89844V15.6909C8.89844 14.9051 8.64941 14.2604 8.15137 13.7568C7.65885 13.2477 6.90902 12.9932 5.90186 12.9932C4.9113 12.9932 4.09782 13.3695 3.46143 14.1221C2.82503 14.8747 2.50684 16.0257 2.50684 17.5752V18.3389C2.50684 19.7721 2.82227 20.8955 3.45313 21.709C4.08952 22.5169 4.90576 22.9209 5.90186 22.9209C6.85368 22.9209 7.57031 22.6636 8.05176 22.1489C8.53874 21.6343 8.8182 20.9924 8.89014 20.2231L8.89844 20.1318H10.4507L10.4424 20.2314C10.3372 21.3382 9.91113 22.2845 9.16406 23.0703C8.41699 23.8506 7.32959 24.2407 5.90186 24.2407C4.46859 24.2407 3.28158 23.7261 2.34082 22.6968C1.4056 21.6619 0.937988 20.2093 0.937988 18.3389ZM12.3516 24L12.3516 15.3423H13.7129L13.771 16.4629H13.8208C14.0422 16.0977 14.3299 15.7795 14.6841 15.5083C15.0438 15.2371 15.4754 15.1016 15.979 15.1016C16.0952 15.1016 16.2197 15.1154 16.3525 15.1431C16.4854 15.1707 16.5794 15.1956 16.6348 15.2178V16.604C16.5241 16.5819 16.4079 16.5653 16.2861 16.5542C16.1644 16.5431 16.0316 16.5376 15.8877 16.5376C15.3952 16.5376 14.9746 16.6676 14.626 16.9277C14.2773 17.1878 14.02 17.5116 13.854 17.8989L13.854 24H12.3516ZM17.3901 19.8081V19.5425C17.3901 18.2365 17.7471 17.1712 18.4609 16.3467C19.1748 15.5166 20.1183 15.1016 21.2915 15.1016C22.4647 15.1016 23.3667 15.4889 23.9976 16.2637C24.634 17.0329 24.9521 18.076 24.9521 19.3931V20.0073H18.3032V18.8037H23.4414V18.6211C23.4414 17.9902 23.2643 17.4507 22.9102 17.0024C22.556 16.5542 22.0358 16.3301 21.3496 16.3301C20.5361 16.3301 19.9274 16.64 19.5234 17.2598C19.1195 17.874 18.9175 18.6349 18.9175 19.5425V19.8081C18.9175 20.7101 19.1305 21.471 19.5566 22.0908C19.9827 22.7051 20.6413 23.0122 21.5322 23.0122C22.0856 23.0122 22.5588 22.8932 22.9517 22.6553C23.3501 22.4118 23.6711 22.124 23.9146 21.792L24.8857 22.564C24.6146 22.9735 24.194 23.3553 23.624 23.7095C23.054 24.0636 22.3568 24.2407 21.5322 24.2407C20.1986 24.2407 19.1748 23.8285 18.4609 23.0039C17.7471 22.1794 17.3901 21.1141 17.3901 19.8081ZM26.2886 19.8081V19.5425C26.2886 18.2808 26.6151 17.2376 27.2681 16.4131C27.9266 15.5885 28.8037 15.1763 29.8994 15.1763C30.5081 15.1763 31.0256 15.2869 31.4517 15.5083C31.8778 15.7241 32.2181 16.0091 32.4727 16.3633V11.2915H33.9668V24H32.6138L32.5474 22.8628H32.5059C32.2845 23.2225 31.9469 23.5296 31.4932 23.7842C31.0394 24.0387 30.5081 24.166 29.8994 24.166C28.8037 24.166 27.9266 23.7565 27.2681 22.9375C26.6151 22.113 26.2886 21.0698 26.2886 19.8081ZM27.8242 19.8081C27.8242 20.6935 28.0151 21.4378 28.397 22.041C28.7843 22.6387 29.3931 22.9375 30.2231 22.9375C30.7765 22.9375 31.2469 22.7853 31.6343 22.481C32.0216 22.1766 32.3011 21.8307 32.4727 21.4434V17.8906C32.3011 17.5088 32.0216 17.1685 31.6343 16.8696C31.2469 16.5653 30.7765 16.4131 30.2231 16.4131C29.3931 16.4131 28.7843 16.7147 28.397 17.3179C28.0151 17.9155 27.8242 18.6571 27.8242 19.5425V19.8081ZM36.4653 24V15.3423H37.9595V24H36.4653ZM36.2744 12.686C36.2744 12.4315 36.3547 12.2184 36.5151 12.0469C36.6812 11.8753 36.9136 11.7896 37.2124 11.7896C37.5168 11.7896 37.7492 11.8753 37.9097 12.0469C38.0701 12.2184 38.1504 12.4315 38.1504 12.686C38.1504 12.9406 38.0701 13.1564 37.9097 13.3335C37.7492 13.505 37.5168 13.5908 37.2124 13.5908C36.908 13.5908 36.6756 13.505 36.5151 13.3335C36.3547 13.1564 36.2744 12.9406 36.2744 12.686ZM39.2461 16.4961V15.3423L44.1685 15.3423V16.4961L39.2461 16.4961ZM40.7983 21.8501V16.0312V15.7988V13.1343H42.2925V21.8501C42.2925 22.2485 42.37 22.5308 42.5249 22.6968C42.6854 22.8628 42.9316 22.9458 43.2637 22.9458C43.4186 22.9458 43.568 22.932 43.7119 22.9043C43.8613 22.8711 44.0107 22.8268 44.1602 22.7715V24C44.0218 24.0664 43.8392 24.1217 43.6123 24.166C43.3854 24.2158 43.1364 24.2407 42.8652 24.2407C42.2344 24.2407 41.7308 24.0498 41.3545 23.668C40.9837 23.2861 40.7983 22.6802 40.7983 21.8501ZM48.6426 19.5508V18.1978H57.0347V19.5508H48.6426ZM61.1021 24L65.6426 11.8394H67.0537L71.5942 24H69.9756L66.6802 14.8027C66.6138 14.6201 66.5557 14.443 66.5059 14.2715C66.4561 14.0999 66.4118 13.9201 66.373 13.7319H66.29C66.2513 13.9201 66.207 14.0999 66.1572 14.2715C66.1074 14.443 66.0493 14.6201 65.9829 14.8027L62.6543 24H61.1021ZM63.0444 20.8208L63.5176 19.5508H69.1621L69.627 20.8208H63.0444ZM72.2749 19.8081V19.5425C72.2749 18.2808 72.6014 17.2376 73.2544 16.4131C73.9129 15.5885 74.79 15.1763 75.8857 15.1763C76.4945 15.1763 77.0119 15.2869 77.438 15.5083C77.8641 15.7241 78.2044 16.0091 78.459 16.3633V11.2915L79.9531 11.2915V24H78.6001L78.5337 22.8628H78.4922C78.2708 23.2225 77.9333 23.5296 77.4795 23.7842C77.0257 24.0387 76.4945 24.166 75.8857 24.166C74.79 24.166 73.9129 23.7565 73.2544 22.9375C72.6014 22.113 72.2749 21.0698 72.2749 19.8081ZM73.8105 19.8081C73.8105 20.6935 74.0015 21.4378 74.3833 22.041C74.7707 22.6387 75.3794 22.9375 76.2095 22.9375C76.7629 22.9375 77.2332 22.7853 77.6206 22.481C78.008 22.1766 78.2874 21.8307 78.459 21.4434V17.8906C78.2874 17.5088 78.008 17.1685 77.6206 16.8696C77.2332 16.5653 76.7629 16.4131 76.2095 16.4131C75.3794 16.4131 74.7707 16.7147 74.3833 17.3179C74.0015 17.9155 73.8105 18.6571 73.8105 19.5425V19.8081ZM81.8955 21.4517C81.8955 20.5773 82.2414 19.8966 82.9331 19.4097C83.6304 18.9227 84.5158 18.6792 85.5894 18.6792H87.5566V18.0649C87.5566 17.5392 87.4211 17.1159 87.1499 16.7949C86.8787 16.4684 86.4111 16.3052 85.7471 16.3052C85.0885 16.3052 84.6154 16.4408 84.3276 16.7119C84.0399 16.9775 83.896 17.2957 83.896 17.6665V17.7163H82.4019V17.6582C82.4019 16.972 82.7062 16.3743 83.3149 15.8652C83.9237 15.3561 84.7482 15.1016 85.7886 15.1016C86.8234 15.1016 87.6258 15.3506 88.1958 15.8486C88.7713 16.3411 89.0591 17.0799 89.0591 18.0649V22.0078C89.0591 22.3675 89.084 22.7078 89.1338 23.0288C89.1891 23.3442 89.2666 23.6237 89.3662 23.8672V24H87.9219C87.8444 23.8617 87.7725 23.6818 87.7061 23.4604C87.6452 23.2391 87.6064 23.0177 87.5898 22.7964C87.3851 23.1561 87.0558 23.4743 86.6021 23.751C86.1483 24.0277 85.5645 24.166 84.8506 24.166C84.026 24.166 83.326 23.9336 82.7505 23.4687C82.1805 23.0039 81.8955 22.3315 81.8955 21.4517ZM83.3979 21.377C83.3979 21.875 83.5418 22.2651 83.8296 22.5474C84.1174 22.8241 84.5628 22.9624 85.166 22.9624C85.7747 22.9624 86.3254 22.7521 86.8179 22.3315C87.3104 21.911 87.5566 21.4655 87.5566 20.9951V19.75H85.7554C84.9751 19.75 84.3857 19.8966 83.9873 20.1899C83.5944 20.4832 83.3979 20.8789 83.3979 21.377ZM91.4414 24V15.3423H92.8027L92.8608 16.4629H92.9106C93.215 16.07 93.5858 15.7573 94.0229 15.5249C94.4601 15.2925 94.9471 15.1763 95.4839 15.1763C96.0649 15.1763 96.5658 15.2925 96.9863 15.5249C97.4124 15.7573 97.7334 16.1309 97.9492 16.6455H97.9907C98.3504 16.1309 98.7516 15.7573 99.1943 15.5249C99.637 15.2925 100.143 15.1763 100.713 15.1763C101.61 15.1763 102.307 15.4253 102.805 15.9233C103.309 16.4159 103.561 17.2432 103.561 18.4053V24H102.066V18.3887C102.066 17.6914 101.917 17.1934 101.618 16.8945C101.319 16.5902 100.896 16.438 100.348 16.438C99.8722 16.438 99.4572 16.5736 99.103 16.8447C98.7489 17.1104 98.4666 17.4535 98.2563 17.874V24H96.7539V18.3887C96.7539 17.6914 96.6045 17.1934 96.3057 16.8945C96.0068 16.5902 95.5835 16.438 95.0356 16.438C94.5597 16.438 94.1447 16.5736 93.7905 16.8447C93.4364 17.1104 93.1541 17.4535 92.9438 17.874V24H91.4414ZM108.964 20.6797V20.5884H110.517V20.6714C110.517 21.4074 110.71 21.9663 111.098 22.3481C111.491 22.73 112.033 22.9209 112.725 22.9209C113.416 22.9209 113.959 22.7106 114.352 22.29C114.744 21.8639 114.941 21.2524 114.941 20.4556V11.9141H116.485V20.4639C116.485 21.6315 116.139 22.5529 115.447 23.228C114.756 23.9032 113.848 24.2407 112.725 24.2407C111.601 24.2407 110.694 23.9253 110.002 23.2944C109.31 22.658 108.964 21.7865 108.964 20.6797ZM118.485 21.4517C118.485 20.5773 118.831 19.8966 119.523 19.4097C120.22 18.9227 121.106 18.6792 122.179 18.6792H124.146V18.0649C124.146 17.5392 124.011 17.1159 123.74 16.7949C123.469 16.4684 123.001 16.3052 122.337 16.3052C121.678 16.3052 121.205 16.4408 120.917 16.7119C120.63 16.9775 120.486 17.2957 120.486 17.6665V17.7163H118.992V17.6582C118.992 16.972 119.296 16.3743 119.905 15.8652C120.514 15.3561 121.338 15.1016 122.378 15.1016C123.413 15.1016 124.216 15.3506 124.786 15.8486C125.361 16.3411 125.649 17.0799 125.649 18.0649V22.0078C125.649 22.3675 125.674 22.7078 125.724 23.0288C125.779 23.3442 125.856 23.6237 125.956 23.8672V24H124.512C124.434 23.8617 124.362 23.6818 124.296 23.4604C124.235 23.2391 124.196 23.0177 124.18 22.7964C123.975 23.1561 123.646 23.4743 123.192 23.751C122.738 24.0277 122.154 24.166 121.44 24.166C120.616 24.166 119.916 23.9336 119.34 23.4687C118.77 23.0039 118.485 22.3315 118.485 21.4517ZM119.988 21.377C119.988 21.875 120.132 22.2651 120.419 22.5474C120.707 22.8241 121.153 22.9624 121.756 22.9624C122.365 22.9624 122.915 22.7521 123.408 22.3315C123.9 21.911 124.146 21.4655 124.146 20.9951V19.75H122.345C121.565 19.75 120.976 19.8966 120.577 20.1899C120.184 20.4832 119.988 20.8789 119.988 21.377ZM128.031 24V15.3423H129.393L129.451 16.4629H129.5C129.81 16.0645 130.192 15.7518 130.646 15.5249C131.1 15.2925 131.603 15.1763 132.157 15.1763C133.026 15.1763 133.717 15.4253 134.232 15.9233C134.752 16.4159 135.012 17.2432 135.012 18.4053V24H133.51V18.397C133.51 17.6942 133.352 17.1934 133.037 16.8945C132.727 16.5902 132.284 16.438 131.708 16.438C131.216 16.438 130.782 16.5736 130.405 16.8447C130.035 17.1104 129.744 17.4535 129.534 17.874V24H128.031ZM137.162 26.374L138.1 25.2451C138.344 25.5218 138.684 25.7681 139.121 25.9839C139.564 26.1997 140.062 26.3076 140.615 26.3076C141.357 26.3076 141.943 26.0918 142.375 25.6602C142.807 25.234 143.022 24.6226 143.022 23.8257V22.9707C142.768 23.3304 142.425 23.6182 141.993 23.834C141.567 24.0498 141.052 24.1577 140.449 24.1577C139.354 24.1577 138.476 23.7482 137.818 22.9292C137.165 22.1102 136.838 21.0698 136.838 19.8081V19.5425C136.838 18.2808 137.165 17.2376 137.818 16.4131C138.476 15.5885 139.354 15.1763 140.449 15.1763C141.052 15.1763 141.581 15.3035 142.035 15.5581C142.494 15.8071 142.834 16.1115 143.056 16.4712H143.097L143.164 15.3423H144.517V23.8257C144.517 25.0487 144.16 25.9867 143.446 26.6396C142.732 27.2926 141.799 27.6191 140.648 27.6191C139.94 27.6191 139.284 27.5002 138.681 27.2622C138.083 27.0298 137.577 26.7337 137.162 26.374ZM138.374 19.8081C138.374 20.6935 138.565 21.4351 138.947 22.0327C139.334 22.6304 139.943 22.9292 140.773 22.9292C141.326 22.9292 141.797 22.777 142.184 22.4727C142.571 22.1683 142.851 21.8252 143.022 21.4434V17.8989C142.851 17.5116 142.571 17.1685 142.184 16.8696C141.797 16.5653 141.326 16.4131 140.773 16.4131C139.943 16.4131 139.334 16.7147 138.947 17.3179C138.565 17.9155 138.374 18.6571 138.374 19.5425V19.8081Z" fill="white"/>
<rect x="156.03" y="18.715" width="2880" height="1" fill="white"/>
</g>
<defs>
<clipPath id="clip0_148_2512">
<rect width="485.3" height="37" fill="white"/>
</clipPath>
</defs>
</svg>
