<svg width="137" height="460" viewBox="0 0 137 460" fill="none" xmlns="http://www.w3.org/2000/svg">
<path d="M73.8438 448.479C73.486 450.343 76.1149 454.693 78.1176 457.564C78.7561 458.48 79.8125 459 80.9286 459C82.1413 459 83.2703 458.382 83.9237 457.36L86.3372 453.587C86.8516 452.782 87.125 451.848 87.125 450.893V447.401C87.125 446.652 87.2931 445.913 87.6168 445.238L88.7582 442.859C89.0819 442.184 89.25 441.445 89.25 440.697V430.431C89.25 429.914 89.1699 429.393 89.2181 428.878C89.4058 426.874 90.9926 422.337 92.0932 419.462C92.3181 418.875 92.4375 418.253 92.4375 417.625V403.071C92.4375 399.934 93.1813 392.883 96.1562 389.782C98.9529 386.866 97.587 379.156 96.3835 375.022C96.239 374.526 96.1562 374.013 96.1562 373.497V362.862C96.1562 362.369 96.3466 361.896 96.6875 361.54C97.0284 361.185 97.2188 360.712 97.2188 360.219V358.482C97.2188 356.618 96.0055 354.881 95.3906 353.122C94.9054 351.734 94.8547 350.069 94.9594 348.776C95.0173 348.061 94.9804 347.337 94.9417 346.621C94.6242 340.738 100.046 324.858 103.258 316.452C103.479 315.874 103.594 315.262 103.594 314.644V309.518C103.594 308.769 103.455 307.95 103.864 307.323C104.108 306.947 104.471 306.536 104.875 306.136C105.997 305.024 106.781 303.573 106.781 301.993V295.843C106.781 294.643 107.213 293.484 107.997 292.576L110.347 289.854C111.131 288.945 111.562 287.786 111.562 286.586V280.433C111.562 279.872 111.657 279.315 111.842 278.786L115.115 269.403C115.561 268.125 115.469 266.721 114.862 265.511L110.501 256.834C110.151 256.138 109.969 255.369 109.969 254.589V252.594C109.969 251.774 110.177 250.97 110.53 250.229C111.363 248.478 112.25 246.165 111.562 245.807C110.713 245.364 111.208 242.669 111.562 241.377L112.447 238.15C112.565 237.719 112.625 237.275 112.625 236.828V231.426C112.625 228.665 110.386 226.426 107.625 226.426H105.029C104.091 226.426 103.171 226.685 102.391 227.205C99.5142 229.126 95.1364 232.428 94.0312 234.732C92.8687 237.156 88.9679 238.843 86.6779 239.541C86.271 239.665 85.8472 239.716 85.4217 239.716H71.951C71.4449 239.716 70.9418 239.793 70.4588 239.944L65.875 241.377C59.9867 242.605 58.7818 237.628 58.9112 234.388C58.9315 233.88 59.0735 233.388 59.2793 232.923L61.772 227.294C62.0259 226.72 62.1697 226.104 62.1958 225.478L62.6066 215.629C62.6586 214.382 63.1755 213.199 64.0555 212.313L76.6274 199.661C77.566 198.716 78.8426 198.185 80.1742 198.185H81.0625C83.8239 198.185 86.0625 195.946 86.0625 193.185V191.54C86.0625 189.768 82.5208 188.218 80.75 187.664C78.8021 187.295 74.375 186.113 72.25 184.341C70.125 182.569 68.1771 183.603 67.4688 184.341L66.9864 185.012C66.2705 186.007 65.2177 186.751 63.9982 186.875C60.5563 187.225 60.9346 185.498 61.8373 184.203C62.0367 183.917 62.2947 183.679 62.5693 183.465L63.2386 182.941C65.0884 181.495 65.6828 178.957 64.6673 176.84L63.0544 173.478C62.8116 172.971 62.6563 172.429 62.5923 171.871C61.6527 163.686 59.5482 148.524 57.9062 147.24C56.4124 146.072 56.997 144.819 57.6413 144.157C57.8071 143.986 57.9889 143.832 58.1535 143.66L60.7715 140.931C61.6601 140.005 62.1562 138.771 62.1562 137.488C62.1562 136.278 61.6783 135.134 61.0038 134.131C59.4505 131.82 59.4772 130.074 60.1309 128.843C61.0886 127.04 62.7516 125.416 62.8494 123.377L63.1963 116.145C63.2112 115.834 63.2554 115.524 63.3282 115.22C63.6007 114.084 64.2634 113.079 65.2007 112.382L70.2992 108.586C70.8843 108.15 71.3577 107.578 71.7506 106.963C74.3817 102.849 77.0961 103.694 78.9778 105.537C80.2905 106.823 81.8956 107.924 83.7334 107.924H88.6556C89.7314 107.924 90.7786 108.271 91.6415 108.914L92.0172 109.193C93.2845 110.137 94.0312 111.624 94.0312 113.204V115.004C94.0312 115.45 94.0911 115.895 94.2091 116.326L94.2496 116.473C94.7644 118.351 96.3225 119.759 98.2428 120.082L109.909 122.044C110.982 122.224 113.562 121.683 112.554 121.274C112.461 121.236 112.312 121.214 112.094 121.214C110.938 121.214 111.15 119.089 111.464 117.729C111.524 117.468 111.575 117.203 111.601 116.936L112.014 112.632C112.057 112.186 111.706 111.8 111.259 111.8H111.236C110.829 111.8 110.5 111.471 110.5 111.065C110.5 110.591 110.941 110.243 111.41 110.305C112.882 110.499 114.375 110.302 112.625 108.478C111.088 106.876 110.941 104.79 111.178 103.27C111.328 102.309 111.465 101.325 111.282 100.369L109.969 93.5268C109.321 90.153 111.509 88.7063 113.527 88.2082C114.64 87.9335 115.767 87.5953 116.658 86.8732L124.471 80.5394C124.716 80.34 125.002 80.1955 125.309 80.1157L125.528 80.0584C126.377 79.8374 126.969 79.0713 126.969 78.1945C126.969 77.7263 127.139 77.2742 127.448 76.9226L131.567 72.2392C132.37 71.3265 132.812 70.1527 132.812 68.9373V66.189C132.812 63.7239 134.856 60.6301 135.497 58.25C135.926 56.6607 135.001 54.7372 134.214 53.2917C132.939 50.952 131.893 47.0671 131.152 43.4526C130.528 40.4134 125.937 37.6722 127.218 34.8464C127.299 34.6663 127.393 34.4762 127.5 34.2758C129.014 31.4353 127.921 28.8009 126.527 27.0535C125.604 25.8962 124.844 24.5405 124.844 23.0602C124.844 21.7404 124.281 20.4832 123.297 19.6039L121.305 17.8246C121.191 17.722 121.125 17.5754 121.125 17.4214C121.125 17.2285 121.231 17.0503 121.394 16.947C123.504 15.6091 123.513 14.093 122.846 12.8702C122.232 11.7442 122.098 10.2074 123.083 9.3859C123.525 9.01681 123.781 8.47025 123.781 7.89394V3.38507C123.781 2.93851 123.734 2.48609 123.574 2.06935C122.735 -0.107595 121.614 1.5217 121.125 2.71221L119.812 6.36102C119.626 6.87826 119.356 7.36128 119.013 7.79063L118.16 8.85692C117.337 9.88683 116.14 10.5498 114.83 10.7015L114.015 10.7959C112.779 10.9391 111.64 11.5382 110.822 12.4762L107.218 16.6091C106.94 16.9272 106.539 17.1097 106.117 17.1097H105.075C104.844 17.1097 104.656 17.2972 104.656 17.5284C104.656 17.6162 104.63 17.7022 104.574 17.7702C103.993 18.4828 102.683 19.2188 101.469 17.1097C100.513 15.449 99.0989 15.7598 98.078 16.4083C97.4758 16.7908 97.2188 17.508 97.2188 18.2214V20.4547C97.2188 20.7481 96.9809 20.9859 96.6875 20.9859C96.3941 20.9859 96.1562 21.2238 96.1562 21.5172V32.6371C96.1562 32.9305 95.9184 33.1684 95.625 33.1684C95.3316 33.1684 95.0938 33.4062 95.0938 33.6996V35.4059C95.0938 35.6993 94.8559 35.9371 94.5625 35.9371C94.2691 35.9371 94.0312 36.175 94.0312 36.4684V37.3215C94.0312 38.086 93.4114 38.7059 92.6469 38.7059H92.0813C91.6249 38.7059 91.183 38.8659 90.8325 39.1582L89.5084 40.2624C88.9874 40.6968 88.3846 41.0228 87.7315 41.2059C85.1458 41.9308 81.4388 42.8075 81.8125 42.0283C82.1348 41.3564 80.4403 39.5802 78.9075 38.1976C78.0562 37.4297 76.9368 37.0446 75.7903 37.0446H74.375C73.3125 37.0446 73.3125 38.7059 72.25 38.1521C71.5097 37.7663 69.1039 38.1925 67.5593 38.5528C67.145 38.6495 66.7222 38.7059 66.2967 38.7059H62.7711C60.063 38.7059 57.8472 40.8618 57.773 43.5689L57.3822 57.8251C57.3782 57.9709 57.2589 58.087 57.113 58.087C56.9643 58.087 56.8438 58.2076 56.8438 58.3563V59.5548C56.8438 59.9675 57.1783 60.302 57.591 60.302C58.0404 60.302 58.3886 60.696 58.3235 61.1407C57.689 65.4752 56.0459 72.0679 53.6562 69.162C51.8324 66.944 49.8998 67.2378 48.5583 68.0578C47.6199 68.6313 47.2608 69.7576 47.2232 70.8567L46.2188 100.172L43.5625 128.967L41.9688 139.488L38.3954 157.579C38.3109 158.007 37.9356 158.315 37.4994 158.315C37.0233 158.315 36.627 158.681 36.5891 159.156L35.7079 170.177C35.6341 171.101 35.2435 171.97 34.6022 172.639C34.2053 173.052 33.9025 173.542 33.7137 174.084C31.7051 179.843 28.2825 190.142 28.6875 190.986C29.0643 191.772 23.0675 203.639 18.9872 211.467C18.1 213.169 18.2556 215.225 19.3953 216.77L20.428 218.169C21.835 220.076 21.7105 222.708 20.1299 224.473L9.33628 236.528C8.45999 237.506 8.00403 238.79 8.06697 240.103L8.39693 246.981C8.46273 248.353 7.96145 249.691 7.01074 250.682L2.23425 255.661C0.87411 257.079 0.465708 259.151 1.20021 260.973C8.79959 279.827 22.4236 312.927 24.4375 315.026C26.4964 317.172 29.3865 326.076 30.6918 330.657C30.7728 330.941 30.8267 331.231 30.8544 331.525C31.04 333.492 31.3438 336.909 31.3438 337.729C31.3438 338.36 32.4217 339.965 33.4259 341.303C34.1213 342.23 34.5312 343.346 34.5312 344.505V349.562C34.5312 350.853 35.03 352.093 35.9232 353.024L41.8571 359.209C42.2821 359.652 42.6218 360.169 42.8594 360.736L49.9375 377.599L59.1616 397.363C59.3858 397.843 59.5322 398.356 59.5953 398.882L60.3635 405.288C60.4926 406.365 60.9605 407.384 61.4945 408.329C64.9525 414.445 72.7812 435.848 72.7812 436.85C72.7812 437.958 74.375 445.71 73.8438 448.479Z" stroke="#87CEEB" stroke-dasharray="3 2"/>
</svg>
