<svg width="74" height="85" viewBox="0 0 74 85" fill="none" xmlns="http://www.w3.org/2000/svg">
<g filter="url(#filter0_b_532_916)">
<path d="M39.6391 84.7106C39.2145 84.1778 38.6709 83.3885 38.7461 83.0474C38.8594 82.5335 38.5195 81.0948 38.5195 80.8892C38.5195 80.7312 37.3144 77.84 36.4998 76.2779C36.1679 75.6416 35.8604 74.9501 35.7624 74.2391C35.7129 73.8795 35.5997 73.5315 35.4281 73.2116L33.6484 69.8929L32.3668 67.2353C32.1658 66.8185 31.8863 66.4444 31.5436 66.1335L31.005 65.6449C30.5963 65.2741 30.3633 64.748 30.3633 64.1962C30.3633 63.6967 30.1559 63.2282 29.8607 62.8252C29.7576 62.6845 29.6836 62.5599 29.6836 62.4934C29.6836 62.3912 29.6544 62.0717 29.6232 61.7623C29.5896 61.4283 29.5203 61.099 29.4092 60.7821C29.0971 59.8924 28.5885 58.6224 28.2109 58.2799C27.8124 57.9183 25.2809 52.6001 23.6236 49.0401C23.2508 48.2395 23.445 47.2909 24.0991 46.6975C24.5504 46.2881 24.793 45.6969 24.7595 45.0885L24.7546 44.9995C24.7194 44.3613 24.9623 43.7391 25.4207 43.2936L27.1618 41.6012C27.5611 41.2131 27.5915 40.5821 27.2314 40.1574C26.9369 39.81 26.8974 39.314 27.1309 38.923C27.9969 37.4729 29.195 35.4007 29.1172 35.2595C29.031 35.103 29.7583 33.1976 30.1869 32.1278C30.2284 32.024 30.293 31.9318 30.3758 31.8567C30.5135 31.7318 30.5993 31.5599 30.6163 31.3748L30.7998 29.3765C30.8092 29.2743 30.895 29.1961 30.9976 29.1961C31.0904 29.1961 31.1708 29.1319 31.1914 29.0414L31.9492 25.7019L32.2891 23.7493L32.8555 18.4052L33.0214 14.1912C33.0605 13.1976 33.7585 11.9274 34.4414 12.6501C34.9459 13.1841 35.2944 11.9898 35.4326 11.1854C35.4488 11.0907 35.3749 11.0058 35.2789 11.0058C35.1917 11.0058 35.1211 10.9352 35.1211 10.8481V10.6523C35.1211 10.6205 35.1469 10.5948 35.1786 10.5948C35.2097 10.5948 35.2352 10.5701 35.2361 10.539L35.2933 8.72324C35.3236 7.76165 36.1119 6.99781 37.0739 6.99781C37.2065 6.99781 37.3385 6.98221 37.4686 6.957C37.797 6.8934 38.2581 6.82783 38.4062 6.89504C38.6328 6.99781 38.6328 6.6895 38.8594 6.6895C39.3016 6.6895 39.7414 6.81689 40.0739 7.10852C40.3085 7.31426 40.4966 7.52138 40.4453 7.61443C40.3675 7.75562 41.1193 7.60383 41.6681 7.47135C41.8337 7.43138 41.9887 7.35753 42.1266 7.25747L42.372 7.07935C42.445 7.02635 42.533 6.99781 42.6232 6.99781H42.7939C42.9358 6.99781 43.0508 6.88278 43.0508 6.74089V6.59724C43.0508 6.53468 43.1015 6.48396 43.1641 6.48396C43.2266 6.48396 43.2773 6.43324 43.2773 6.37068V6.08339C43.2773 6.02083 43.3281 5.97011 43.3906 5.97011C43.4532 5.97011 43.5039 5.91939 43.5039 5.85683V3.82246C43.5039 3.7599 43.5546 3.70918 43.6172 3.70918C43.6798 3.70918 43.7305 3.65846 43.7305 3.5959V3.21064C43.7305 3.07 43.7871 2.93036 43.9098 2.86176C44.1278 2.73995 44.4317 2.67975 44.6367 2.98979C44.8953 3.38073 45.1743 3.24497 45.2985 3.11287C45.3105 3.10006 45.3164 3.08294 45.3164 3.06536C45.3164 3.02362 45.3502 2.98979 45.392 2.98979H45.6369C45.7218 2.98979 45.8033 2.95611 45.8634 2.89614L46.5518 2.2091C46.7785 1.98286 47.0764 1.84177 47.395 1.80965C47.7344 1.77544 48.0494 1.61777 48.2801 1.36658L48.3083 1.33591C48.4273 1.20627 48.5227 1.05668 48.5899 0.893993L48.8281 0.317769C48.9199 0.123425 49.1159 -0.133922 49.2834 0.0818688C49.3898 0.219003 49.3945 0.406094 49.3945 0.579686V1.27131C49.3945 1.38245 49.3413 1.48687 49.2513 1.55216C49.0504 1.69798 49.0764 2.00332 49.2034 2.21664C49.3377 2.44215 49.3263 2.71873 48.8794 2.96288C48.8486 2.97972 48.8281 3.01194 48.8281 3.04706C48.8281 3.07576 48.8414 3.10286 48.864 3.12047L49.3155 3.47151C49.5083 3.62147 49.6211 3.85206 49.6211 4.09634C49.6211 4.36723 49.768 4.61237 49.955 4.80838C50.2638 5.13219 50.5194 5.6337 50.1875 6.17564C49.822 6.77243 50.8439 7.40067 51.015 8.07922C51.1671 8.68204 51.3692 9.29817 51.61 9.69019C51.7838 9.97315 51.9856 10.3429 51.8821 10.6585C51.7375 11.0997 51.3203 11.6386 51.3203 12.1029V12.5071C51.3203 12.7959 51.2048 13.0728 50.9995 13.2759L50.1745 14.0924C50.1103 14.1559 50.0742 14.2425 50.0742 14.3328C50.0742 14.4907 49.9649 14.6275 49.8109 14.6625L49.7112 14.6851C49.6517 14.6986 49.5954 14.7236 49.5456 14.7588L48.8369 15.2588C48.0204 15.835 46.4776 15.9182 46.4256 16.9162C46.4216 16.994 46.4287 17.0791 46.4492 17.172L46.5003 17.4039C46.6875 18.253 46.3717 19.3626 47.0156 19.9468C47.3995 20.295 47.0517 20.3237 46.7297 20.2826C46.6428 20.2715 46.5625 20.337 46.5625 20.4246C46.5625 20.5013 46.6246 20.5634 46.7013 20.5634H46.7231C46.8187 20.5634 46.8932 20.6465 46.8827 20.7416L46.7982 21.5082C46.7921 21.5633 46.7801 21.6175 46.7661 21.6712C46.7003 21.9237 46.6582 22.3105 46.9023 22.3105C47.0254 22.3105 46.9936 22.3445 46.8949 22.38L46.3304 27.6404C46.302 27.9051 46.2948 28.1715 46.3088 28.4373L47.0156 41.8367V43.1379C47.0156 43.6378 46.9392 44.1347 46.7891 44.6115C46.7135 44.8513 46.6078 45.3514 46.7891 45.4337C46.9122 45.4895 46.7983 45.8017 46.6533 46.0927C46.5304 46.3395 46.4492 46.6072 46.4492 46.8828C46.4492 47.1453 46.5183 47.4032 46.6496 47.6305L46.8921 48.0505C47.3992 48.9288 47.475 49.9914 47.0976 50.9328L46.9842 51.2157C46.8553 51.5373 46.7891 51.8807 46.7891 52.2272V52.6231C46.7891 53.0868 46.6058 53.5316 46.2793 53.8608C45.9528 54.1899 45.7695 54.6348 45.7695 55.0984V55.6273C45.7695 56.0631 45.4312 56.4909 45.1607 56.833L45.1594 56.8346C45.0246 57.005 45.0898 57.1606 45.0898 57.378V57.778C45.0898 58.1766 45.0051 58.5695 44.849 58.9362C44.2105 60.4357 43.3261 62.7592 43.2477 63.8942C43.2277 64.1833 43.2334 64.4816 43.239 64.7717L43.2394 64.793C43.2429 64.9733 43.2693 65.1669 43.3361 65.3387C43.4705 65.6844 43.7305 66.0202 43.7305 66.3911V66.6568C43.7305 66.7542 43.6893 66.8471 43.6172 66.9125C43.545 66.978 43.5039 67.0708 43.5039 67.1682V68.6284C43.5039 69.0569 43.5884 69.4797 43.6917 69.8956C43.8861 70.6781 43.9906 71.7123 43.5039 72.1538C42.8695 72.7293 42.7109 74.0379 42.7109 74.6203V76.4162C42.7109 77.129 42.5472 77.8293 42.2954 78.4962C42.2703 78.5626 42.246 78.6286 42.2229 78.6934C42.0309 79.2323 42.0311 79.8207 42.0312 80.3937L42.0312 80.4427V81.3447C42.0312 81.6527 41.9533 81.9555 41.8047 82.2252C41.6561 82.4949 41.5781 82.7978 41.5781 83.1057V83.165C41.5781 83.5559 41.4533 83.9366 41.2218 84.2516L40.9187 84.6642C40.7635 84.8753 40.5171 85 40.2551 85C40.0162 85 39.7879 84.8974 39.6391 84.7106Z" fill="#ACD4EA" fill-opacity="0.77"/>
</g>
<path d="M0.656 36.8H2.416V48H0.656V36.8ZM6.02213 48.16C5.16879 48.16 4.52346 47.92 4.08613 47.44C3.64879 46.9493 3.43013 46.2507 3.43013 45.344V44.704H5.09413V45.472C5.09413 46.1973 5.39813 46.56 6.00613 46.56C6.30479 46.56 6.52879 46.4747 6.67813 46.304C6.83813 46.1227 6.91813 45.8347 6.91813 45.44C6.91813 44.9707 6.81146 44.56 6.59813 44.208C6.38479 43.8453 5.99013 43.4133 5.41413 42.912C4.68879 42.272 4.18213 41.696 3.89413 41.184C3.60613 40.6613 3.46213 40.0747 3.46213 39.424C3.46213 38.5387 3.68613 37.856 4.13412 37.376C4.58213 36.8853 5.23279 36.64 6.08613 36.64C6.92879 36.64 7.56346 36.8853 7.99013 37.376C8.42746 37.856 8.64613 38.5493 8.64613 39.456V39.92H6.98213V39.344C6.98213 38.96 6.90746 38.6827 6.75813 38.512C6.60879 38.3307 6.39013 38.24 6.10213 38.24C5.51546 38.24 5.22213 38.5973 5.22213 39.312C5.22213 39.7173 5.32879 40.096 5.54213 40.448C5.76613 40.8 6.16613 41.2267 6.74213 41.728C7.47813 42.368 7.98479 42.9493 8.26213 43.472C8.53946 43.9947 8.67813 44.608 8.67813 45.312C8.67813 46.2293 8.44879 46.9333 7.99013 47.424C7.54213 47.9147 6.88613 48.16 6.02213 48.16ZM9.68725 36.8H12.2953C13.2019 36.8 13.8633 37.0133 14.2793 37.44C14.6953 37.856 14.9033 38.5013 14.9033 39.376V40.064C14.9033 41.2267 14.5193 41.9627 13.7513 42.272V42.304C14.1779 42.432 14.4766 42.6933 14.6473 43.088C14.8286 43.4827 14.9193 44.0107 14.9193 44.672V46.64C14.9193 46.96 14.9299 47.2213 14.9513 47.424C14.9726 47.616 15.0259 47.808 15.1113 48H13.3193C13.2553 47.8187 13.2126 47.648 13.1913 47.488C13.1699 47.328 13.1593 47.04 13.1593 46.624V44.576C13.1593 44.064 13.0739 43.7067 12.9033 43.504C12.7433 43.3013 12.4606 43.2 12.0553 43.2H11.4473V48H9.68725V36.8ZM12.0873 41.6C12.4393 41.6 12.7006 41.5093 12.8713 41.328C13.0526 41.1467 13.1432 40.8427 13.1432 40.416V39.552C13.1432 39.1467 13.0686 38.8533 12.9193 38.672C12.7806 38.4907 12.5566 38.4 12.2473 38.4H11.4473V41.6H12.0873ZM17.5004 36.8H19.8844L21.7084 48H19.9484L19.6284 45.776V45.808H17.6284L17.3084 48H15.6764L17.5004 36.8ZM19.4204 44.288L18.6364 38.752H18.6044L17.8364 44.288H19.4204ZM22.5623 36.8H27.3623V38.4H24.3223V41.36H26.7383V42.96H24.3223V46.4H27.3623V48H22.5623V36.8ZM28.3748 36.8H30.1348V46.4H33.0308V48H28.3748V36.8ZM37.8133 38.4H35.9733V36.8H41.4133V38.4H39.5733V48H37.8133V38.4ZM42.2654 36.8H44.8734C45.78 36.8 46.4414 37.0133 46.8574 37.44C47.2734 37.856 47.4814 38.5013 47.4814 39.376V40.064C47.4814 41.2267 47.0974 41.9627 46.3294 42.272V42.304C46.756 42.432 47.0547 42.6933 47.2254 43.088C47.4067 43.4827 47.4974 44.0107 47.4974 44.672V46.64C47.4974 46.96 47.508 47.2213 47.5294 47.424C47.5507 47.616 47.604 47.808 47.6894 48H45.8974C45.8334 47.8187 45.7907 47.648 45.7694 47.488C45.748 47.328 45.7374 47.04 45.7374 46.624V44.576C45.7374 44.064 45.652 43.7067 45.4814 43.504C45.3214 43.3013 45.0387 43.2 44.6334 43.2H44.0254V48H42.2654V36.8ZM44.6654 41.6C45.0174 41.6 45.2787 41.5093 45.4494 41.328C45.6307 41.1467 45.7214 40.8427 45.7214 40.416V39.552C45.7214 39.1467 45.6467 38.8533 45.4974 38.672C45.3587 38.4907 45.1347 38.4 44.8254 38.4H44.0254V41.6H44.6654ZM50.0785 36.8H52.4625L54.2865 48H52.5265L52.2065 45.776V45.808H50.2065L49.8865 48H48.2545L50.0785 36.8ZM51.9985 44.288L51.2145 38.752H51.1825L50.4145 44.288H51.9985ZM54.2233 36.8H55.9993L57.1513 45.488H57.1833L58.3353 36.8H59.9513L58.2552 48H55.9193L54.2233 36.8ZM60.7966 36.8H65.5966V38.4H62.5566V41.36H64.9726V42.96H62.5566V46.4H65.5966V48H60.7966V36.8ZM66.6091 36.8H68.3691V46.4H71.2651V48H66.6091V36.8Z" fill="#F0F0F0"/>
<defs>
<filter id="filter0_b_532_916" x="19.4358" y="-4" width="36.4746" height="93" filterUnits="userSpaceOnUse" color-interpolation-filters="sRGB">
<feFlood flood-opacity="0" result="BackgroundImageFix"/>
<feGaussianBlur in="BackgroundImageFix" stdDeviation="2"/>
<feComposite in2="SourceAlpha" operator="in" result="effect1_backgroundBlur_532_916"/>
<feBlend mode="normal" in="SourceGraphic" in2="effect1_backgroundBlur_532_916" result="shape"/>
</filter>
</defs>
</svg>
